<svg width="0" height="0" class="hidden">
  <symbol fill="none" xmlns="http://www.w3.org/2000/svg" viewBox="0 0 981 185" id="logo">
    <rect width="981" height="185" fill="#E5E5E5"></rect>
    <rect x="6.5" y="6.5" width="968" height="172" fill="#FFFDFD" stroke="#CE364D" stroke-width="13"></rect>
    <path d="M47.76 109.528V57.688H59.664V110.008C59.664 115.096 61.68 117.592 66 117.592C70.32 117.592 72.336 115.096 72.336 110.008V57.688H84.24V109.528C84.24 121.432 77.328 127.96 66 127.96C54.672 127.96 47.76 121.432 47.76 109.528ZM120.24 68.056H100.752V57.688H132.24V69.016L110.352 116.632H132.24V127H98.064V115.672L120.24 68.056ZM178.16 57.688H193.808V127H183.44V72.856H183.248L172.496 127H166.736L155.984 72.856H155.792V127H145.424V57.688H161.072L169.52 98.2H169.712L178.16 57.688ZM219.184 127H207.856V115.672H219.184V127ZM245.649 67.48V117.208H249.777C256.113 117.208 258.321 114.808 258.321 107.512V77.176C258.321 69.88 256.113 67.48 249.777 67.48H245.649ZM233.745 127V57.688H251.409C263.697 57.688 270.225 64.408 270.225 78.616V106.072C270.225 120.28 263.697 127 251.409 127H233.745ZM307.089 98.2V127H295.185V98.2L280.785 57.688H292.881L301.233 84.088H301.425L309.393 57.688H321.489L307.089 98.2ZM338.993 127V68.056H327.473V57.688H362.417V68.056H350.897V127H338.993ZM378.544 127H367.216V115.672H378.544V127ZM426.129 73.528L414.801 74.776C414.321 68.824 411.153 67.096 408.465 67.096C404.625 67.096 402.513 69.592 402.513 73.912C402.513 85.72 426.705 91.384 426.705 110.2C426.705 121.624 419.025 127.96 407.889 127.96C396.849 127.96 390.513 119.128 390.033 108.76L401.361 107.128C401.841 114.136 404.625 117.592 408.465 117.592C412.593 117.592 415.377 115.384 415.377 111.256C415.377 97.528 391.185 93.88 391.185 74.008C391.185 62.968 397.905 56.728 409.617 56.728C419.313 56.728 425.073 63.736 426.129 73.528ZM472.817 127H439.601V57.688H471.473V68.056H451.505V85.912H466.865V96.28H451.505V116.632H472.817V127ZM498.001 67.48V88.792H502.225C508.657 88.792 511.057 86.392 511.057 78.136C511.057 69.88 508.657 67.48 502.225 67.48H498.001ZM498.001 98.584V127H486.097V57.688H502.801C516.145 57.688 522.961 63.352 522.961 78.136C522.961 89.272 518.641 93.784 514.609 95.608L524.689 127H512.593L504.145 98.296C502.609 98.488 500.113 98.584 498.001 98.584ZM549.841 127H537.937V57.688H549.841V85.912H562.513V57.688H574.417V127H562.513V96.28H549.841V127ZM605.234 71.512L600.53 101.272H610.13L605.426 71.512H605.234ZM598.802 111.64L596.69 127H585.17L597.938 57.688H612.722L625.49 127H613.97L611.858 111.64H598.802ZM639.623 127V68.056H628.103V57.688H663.047V68.056H651.527V127H639.623ZM720.489 98.2V127H708.585V98.2L694.185 57.688H706.281L714.633 84.088H714.825L722.793 57.688H734.889L720.489 98.2ZM759.017 127H747.113V57.688H759.017V127ZM806.088 127H775.464V57.688H787.368V116.632H806.088V127ZM829.096 67.48V117.208H833.224C839.56 117.208 841.768 114.808 841.768 107.512V77.176C841.768 69.88 839.56 67.48 833.224 67.48H829.096ZM817.192 127V57.688H834.856C847.144 57.688 853.672 64.408 853.672 78.616V106.072C853.672 120.28 847.144 127 834.856 127H817.192ZM882.569 127H870.665V57.688H882.569V127ZM920.231 68.056H900.743V57.688H932.231V69.016L910.343 116.632H932.231V127H898.055V115.672L920.231 68.056Z" fill="#CE364D"></path>
  </symbol>
</svg>