<svg width="0" height="0" class="hidden">
  <symbol version="1.1" xml:space="preserve" xmlns="http://www.w3.org/2000/svg" xmlnsSerif="http://www.serif.com/" xmlns:xlink="http://www.w3.org/1999/xlink" viewBox="0 0 512 512" id="icon-instagram">
    <path d="M449.446,0c34.525,0 62.554,28.03 62.554,62.554l0,386.892c0,34.524 -28.03,62.554 -62.554,62.554l-386.892,0c-34.524,0 -62.554,-28.03 -62.554,-62.554l0,-386.892c0,-34.524 28.029,-62.554 62.554,-62.554l386.892,0Zm-193.446,81c-47.527,0 -53.487,0.201 -72.152,1.053c-18.627,0.85 -31.348,3.808 -42.48,8.135c-11.508,4.472 -21.267,10.456 -30.996,20.184c-9.729,9.729 -15.713,19.489 -20.185,30.996c-4.326,11.132 -7.284,23.853 -8.135,42.48c-0.851,18.665 -1.052,24.625 -1.052,72.152c0,47.527 0.201,53.487 1.052,72.152c0.851,18.627 3.809,31.348 8.135,42.48c4.472,11.507 10.456,21.267 20.185,30.996c9.729,9.729 19.488,15.713 30.996,20.185c11.132,4.326 23.853,7.284 42.48,8.134c18.665,0.852 24.625,1.053 72.152,1.053c47.527,0 53.487,-0.201 72.152,-1.053c18.627,-0.85 31.348,-3.808 42.48,-8.134c11.507,-4.472 21.267,-10.456 30.996,-20.185c9.729,-9.729 15.713,-19.489 20.185,-30.996c4.326,-11.132 7.284,-23.853 8.134,-42.48c0.852,-18.665 1.053,-24.625 1.053,-72.152c0,-47.527 -0.201,-53.487 -1.053,-72.152c-0.85,-18.627 -3.808,-31.348 -8.134,-42.48c-4.472,-11.507 -10.456,-21.267 -20.185,-30.996c-9.729,-9.728 -19.489,-15.712 -30.996,-20.184c-11.132,-4.327 -23.853,-7.285 -42.48,-8.135c-18.665,-0.852 -24.625,-1.053 -72.152,-1.053Zm0,31.532c46.727,0 52.262,0.178 70.715,1.02c17.062,0.779 26.328,3.63 32.495,6.025c8.169,3.175 13.998,6.968 20.122,13.091c6.124,6.124 9.916,11.954 13.091,20.122c2.396,6.167 5.247,15.433 6.025,32.495c0.842,18.453 1.021,23.988 1.021,70.715c0,46.727 -0.179,52.262 -1.021,70.715c-0.778,17.062 -3.629,26.328 -6.025,32.495c-3.175,8.169 -6.967,13.998 -13.091,20.122c-6.124,6.124 -11.953,9.916 -20.122,13.091c-6.167,2.396 -15.433,5.247 -32.495,6.025c-18.45,0.842 -23.985,1.021 -70.715,1.021c-46.73,0 -52.264,-0.179 -70.715,-1.021c-17.062,-0.778 -26.328,-3.629 -32.495,-6.025c-8.169,-3.175 -13.998,-6.967 -20.122,-13.091c-6.124,-6.124 -9.917,-11.953 -13.091,-20.122c-2.396,-6.167 -5.247,-15.433 -6.026,-32.495c-0.842,-18.453 -1.02,-23.988 -1.02,-70.715c0,-46.727 0.178,-52.262 1.02,-70.715c0.779,-17.062 3.63,-26.328 6.026,-32.495c3.174,-8.168 6.967,-13.998 13.091,-20.122c6.124,-6.123 11.953,-9.916 20.122,-13.091c6.167,-2.395 15.433,-5.246 32.495,-6.025c18.453,-0.842 23.988,-1.02 70.715,-1.02Zm0,53.603c-49.631,0 -89.865,40.234 -89.865,89.865c0,49.631 40.234,89.865 89.865,89.865c49.631,0 89.865,-40.234 89.865,-89.865c0,-49.631 -40.234,-89.865 -89.865,-89.865Zm0,148.198c-32.217,0 -58.333,-26.116 -58.333,-58.333c0,-32.217 26.116,-58.333 58.333,-58.333c32.217,0 58.333,26.116 58.333,58.333c0,32.217 -26.116,58.333 -58.333,58.333Zm114.416,-151.748c0,11.598 -9.403,20.999 -21.001,20.999c-11.597,0 -20.999,-9.401 -20.999,-20.999c0,-11.598 9.402,-21 20.999,-21c11.598,0 21.001,9.402 21.001,21Z"></path>
  </symbol>
  <symbol version="1.1" xml:space="preserve" xmlns="http://www.w3.org/2000/svg" xmlnsSerif="http://www.serif.com/" xmlns:xlink="http://www.w3.org/1999/xlink" viewBox="0 0 512 512" id="icon-pinterest">
    <path d="M449.446,0c34.525,0 62.554,28.03 62.554,62.554l0,386.892c0,34.524 -28.03,62.554 -62.554,62.554l-260.214,0c10.837,-18.276 24.602,-44.144 30.094,-65.264c3.331,-12.822 17.073,-65.143 17.073,-65.143c8.934,17.04 35.04,31.465 62.807,31.465c82.652,0 142.199,-76.005 142.199,-170.448c0,-90.528 -73.876,-158.265 -168.937,-158.265c-118.259,0 -181.063,79.384 -181.063,165.827c0,40.192 21.397,90.228 55.623,106.161c5.192,2.415 7.969,1.351 9.164,-3.666c0.909,-3.809 5.53,-22.421 7.612,-31.077c0.665,-2.767 0.336,-5.147 -1.901,-7.86c-11.323,-13.729 -20.394,-38.983 -20.394,-62.536c0,-60.438 45.767,-118.921 123.739,-118.921c67.317,0 114.465,45.875 114.465,111.485c0,74.131 -37.438,125.487 -86.146,125.487c-26.9,0 -47.034,-22.243 -40.579,-49.52c7.727,-32.575 22.696,-67.726 22.696,-91.239c0,-21.047 -11.295,-38.601 -34.673,-38.601c-27.5,0 -49.585,28.448 -49.585,66.551c0,24.27 8.198,40.685 8.198,40.685c0,0 -27.155,114.826 -32.132,136.211c-5.51,23.659 -3.352,56.982 -0.956,78.664l0.011,0.004l-103.993,0c-34.524,0 -62.554,-28.03 -62.554,-62.554l0,-386.892c0,-34.524 28.029,-62.554 62.554,-62.554l386.892,0Z"></path>
  </symbol>
  <symbol version="1.1" xml:space="preserve" xmlns="http://www.w3.org/2000/svg" xmlnsSerif="http://www.serif.com/" xmlns:xlink="http://www.w3.org/1999/xlink" viewBox="0 0 512 512" id="icon-twitter">
    <path d="M449.446,0c34.525,0 62.554,28.03 62.554,62.554l0,386.892c0,34.524 -28.03,62.554 -62.554,62.554l-386.892,0c-34.524,0 -62.554,-28.03 -62.554,-62.554l0,-386.892c0,-34.524 28.029,-62.554 62.554,-62.554l386.892,0Zm-253.927,424.544c135.939,0 210.268,-112.643 210.268,-210.268c0,-3.218 0,-6.437 -0.153,-9.502c14.406,-10.421 26.973,-23.448 36.935,-38.314c-13.18,5.824 -27.433,9.809 -42.452,11.648c15.326,-9.196 26.973,-23.602 32.49,-40.92c-14.252,8.429 -30.038,14.56 -46.896,17.931c-13.487,-14.406 -32.644,-23.295 -53.946,-23.295c-40.767,0 -73.87,33.104 -73.87,73.87c0,5.824 0.613,11.494 1.992,16.858c-61.456,-3.065 -115.862,-32.49 -152.337,-77.241c-6.284,10.881 -9.962,23.601 -9.962,37.088c0,25.594 13.027,48.276 32.95,61.456c-12.107,-0.307 -23.448,-3.678 -33.41,-9.196l0,0.92c0,35.862 25.441,65.594 59.311,72.49c-6.13,1.686 -12.72,2.606 -19.464,2.606c-4.751,0 -9.348,-0.46 -13.946,-1.38c9.349,29.426 36.628,50.728 68.965,51.341c-25.287,19.771 -57.164,31.571 -91.8,31.571c-5.977,0 -11.801,-0.306 -17.625,-1.073c32.337,21.15 71.264,33.41 112.95,33.41Z"></path>
  </symbol>
  <symbol version="1.1" xml:space="preserve" xmlns="http://www.w3.org/2000/svg" xmlnsSerif="http://www.serif.com/" xmlns:xlink="http://www.w3.org/1999/xlink" viewBox="0 0 512 512" id="icon-youtube">
    <path d="M449.446,0c34.525,0 62.554,28.03 62.554,62.554l0,386.892c0,34.524 -28.03,62.554 -62.554,62.554l-386.892,0c-34.524,0 -62.554,-28.03 -62.554,-62.554l0,-386.892c0,-34.524 28.029,-62.554 62.554,-62.554l386.892,0Zm-20.967,175.63c-4.139,-15.489 -16.337,-27.687 -31.826,-31.826c-28.078,-7.524 -140.653,-7.524 -140.653,-7.524c0,0 -112.575,0 -140.653,7.524c-15.486,4.139 -27.686,16.337 -31.826,31.826c-7.521,28.075 -7.521,86.652 -7.521,86.652c0,0 0,58.576 7.521,86.648c4.14,15.489 16.34,27.69 31.826,31.829c28.078,7.521 140.653,7.521 140.653,7.521c0,0 112.575,0 140.653,-7.521c15.489,-4.139 27.687,-16.34 31.826,-31.829c7.521,-28.072 7.521,-86.648 7.521,-86.648c0,0 0,-58.577 -7.521,-86.652Zm-208.481,140.653l0,-108.002l93.53,54.001l-93.53,54.001Z"></path>
  </symbol>
</svg>